<svg width="82" height="44" viewBox="0 0 82 44" fill="none" xmlns="http://www.w3.org/2000/svg">
<path d="M56.2941 12.3235L64.5294 21.5L56.2941 30.6765" stroke="black" stroke-linecap="round" stroke-linejoin="round"/>
<line x1="64" y1="21.5" x2="-4.37114e-08" y2="21.5" stroke="black"/>
<path d="M39.4812 17.1518C40.6705 12.2976 43.6023 8.03559 47.7321 5.15694C51.8619 2.2783 56.9092 0.978636 61.937 1.49924C66.9647 2.01984 71.6313 4.32534 75.0705 7.98771C78.5096 11.6501 80.4876 16.4205 80.6372 21.4133C80.7868 26.4062 79.0978 31.2822 75.8839 35.1362C72.67 38.9902 68.1495 41.5603 63.1615 42.3694C58.1736 43.1784 53.0572 42.1715 48.7621 39.5355C44.4671 36.8995 41.2852 32.8136 39.8073 28.0362" stroke="black"/>
</svg>
