<svg width="22" height="21" viewBox="0 0 22 21" fill="none" xmlns="http://www.w3.org/2000/svg">
<path fill-rule="evenodd" clip-rule="evenodd" d="M1.0238 2.62499C1.0238 1.74027 1.73909 1.02499 2.61904 1.02499C3.499 1.02499 4.21428 1.74027 4.21428 2.62499C4.21428 3.50972 3.499 4.22499 2.61904 4.22499C1.73909 4.22499 1.0238 3.50972 1.0238 2.62499ZM2.61904 0.0249939C1.18466 0.0249939 0.0238037 1.19012 0.0238037 2.62499C0.0238037 4.05986 1.18466 5.22499 2.61904 5.22499C4.05342 5.22499 5.21428 4.05986 5.21428 2.62499C5.21428 1.19012 4.05342 0.0249939 2.61904 0.0249939ZM15.1905 7.32499C13.6564 7.32499 12.1849 7.93579 11.0998 9.02337C10.0146 10.111 9.40476 11.5864 9.40476 13.125V19.975H12.5952V13.125C12.5952 12.4358 12.8684 11.7746 13.355 11.2869C13.8416 10.7992 14.5018 10.525 15.1905 10.525C15.8791 10.525 16.5394 10.7992 17.026 11.2869C17.5126 11.7746 17.7857 12.4358 17.7857 13.125V19.975H20.9762V13.125C20.9762 11.5864 20.3663 10.111 19.2812 9.02337C18.1961 7.93579 16.7246 7.32499 15.1905 7.32499ZM10.3918 8.31707C11.6643 7.0417 13.3904 6.32499 15.1905 6.32499C16.9905 6.32499 18.7166 7.0417 19.9891 8.31707C21.2615 9.5924 21.9762 11.3219 21.9762 13.125V20.475C21.9762 20.7511 21.7523 20.975 21.4762 20.975H17.2857C17.0096 20.975 16.7857 20.7511 16.7857 20.475V13.125C16.7857 12.7003 16.6174 12.2932 16.3181 11.9932C16.0188 11.6933 15.6132 11.525 15.1905 11.525C14.7678 11.525 14.3621 11.6933 14.0629 11.9932C13.7636 12.2932 13.5952 12.7003 13.5952 13.125V20.475C13.5952 20.7511 13.3714 20.975 13.0952 20.975H8.90476C8.62861 20.975 8.40476 20.7511 8.40476 20.475V13.125C8.40476 11.3219 9.1194 9.5924 10.3918 8.31707ZM0.0238037 7.87499C0.0238037 7.59885 0.247661 7.37499 0.523804 7.37499H4.71428C4.99042 7.37499 5.21428 7.59885 5.21428 7.87499V20.475C5.21428 20.7511 4.99042 20.975 4.71428 20.975H0.523804C0.247661 20.975 0.0238037 20.7511 0.0238037 20.475V7.87499ZM1.0238 8.37499V19.975H4.21428V8.37499H1.0238Z" fill="black"/>
</svg>
